# xmcd
#
# Track frame offsets:
#	183
#	20583
#	48290
#	61498
#	77193
#	105608
#	126848
#	143663
#	171840
#	192040
#	212038
#	230580
#
# Disc length: 3439 seconds
#
# Revision: 1
# Processed by: cddbd v1.5PL3 Copyright (c) Steve Scherf et al.
# Submitted via: audiograbber 1.80
#
DISCID=a40d6d0c
DTITLE=BURTON BROTHERS - TRACKS
DYEAR=1900
DGENRE=
TTITLE0=Southbound train
TTITLE1=Cold Cold Feeling
TTITLE2=Further on up the rain
TTITLE3=Low down dog
TTITLE4=Rainy night in Georgia
TTITLE5=Baby what you want me to do
TTITLE6=two times nine
TTITLE7=I almost lost my mind
TTITLE8=Chicken heads
TTITLE9=People get ready
TTITLE10=Piste Bad ragaz
TTITLE11=Nothing
EXTD=
EXTT0=
EXTT1=
EXTT2=
EXTT3=
EXTT4=
EXTT5=
EXTT6=
EXTT7=
EXTT8=
EXTT9=
EXTT10=
EXTT11=
PLAYORDER=
